<?xml version="1.0" encoding="UTF-8"?>
<!DOCTYPE svg PUBLIC "-//W3C//DTD SVG 1.1//EN" "http://www.w3.org/Graphics/SVG/1.1/DTD/svg11.dtd">
<!-- Creator: CorelDRAW 2018 (64-Bit) -->
<svg xmlns="http://www.w3.org/2000/svg" xml:space="preserve" width="7087px" height="7087px" version="1.1" style="shape-rendering:geometricPrecision; text-rendering:geometricPrecision; image-rendering:optimizeQuality; fill-rule:evenodd; clip-rule:evenodd"
viewBox="0 0 7087 7087"
 xmlns:xlink="http://www.w3.org/1999/xlink">
 <defs>
  <style type="text/css">
   <![CDATA[
    .fil0 {fill:black}
    .fil2 {fill:red}
    .fil1 {fill:white}
   ]]>
  </style>
 </defs>
 <g id="Слой_x0020_1">
  <metadata id="CorelCorpID_0Corel-Layer"/>
  <g id="_1012557872">
   <polygon class="fil0" points="343.25,157.67 947.49,157.67 957.09,160.37 965.19,168.17 970.59,179.27 972.39,193.37 972.39,1049.62 970.59,1063.12 965.19,1074.52 957.09,1082.32 947.49,1085.02 343.25,1085.02 333.65,1082.32 325.55,1074.52 320.15,1063.12 318.35,1049.62 318.35,193.37 320.15,179.27 325.55,168.17 333.65,160.37 "/>
   <polygon class="fil1" points="352.86,172.37 937.89,172.37 947.49,174.77 955.29,182.27 960.69,193.07 962.49,206.57 962.49,1036.42 960.69,1049.62 955.29,1060.42 947.49,1067.92 937.89,1070.62 352.86,1070.62 343.25,1067.92 335.75,1060.42 330.35,1049.62 328.85,1036.42 328.85,206.57 330.35,193.07 335.75,182.27 343.25,174.77 "/>
   <path class="fil2" d="M359.15 294.18l-0.6 -2.7 0 -3.3 1.51 -10.51 3.6 -8.69 3.3 -3.9 4.2 -3.6 4.2 -3.91 4.5 -3.9 5.7 -3.3 3.9 -2.99 3.6 -2.71 2.4 -1.49 3 -4.2 0.9 -5.71 0.3 -2.1 0 -1.19 -0.3 -4.5 -1.8 -3.61 -2.7 -3.3 -3 -1.8 -3 -1.5 -3.3 -0.6 -2.1 0 -2.1 0.6 -2.11 0.6 -1.49 0.6 -3.3 2.1 -2.7 3.3 -2.1 5.7 -0.31 7.5 -8.99 0 0 -2.69 1.2 -12.31 4.5 -9 3.6 -3.3 4.49 -2.7 5.1 -1.5 6.01 -0.6 2.7 0.3 2.4 0.3 2.7 0.6 2.1 0.9 2.1 1.2 1.8 1.5 1.8 1.2 1.5 1.8 3.3 3.9 2.1 3.9 1.5 4.81 0 5.09 -0.6 9 -2.7 7.81 -2.1 3.59 -3 3.6 -3.6 3 -4.2 3.31 -2.1 0.89 -2.1 1.5 -2.7 1.81 -2.7 1.49 -2.7 1.8 -2.71 1.81 -2.39 2.4 -2.4 2.39 -3.3 4.8 -0.9 5.41 40.2 0 0 11.1 -50.11 0zm549.64 620.43l0 0 0 3.3 -0.91 5.4 -3.3 4.8 -4.8 2.7 -5.1 0.9 -5.4 -0.9 -3.9 -3.3 -3 -4.8 -1.2 -5.7 4.5 -14.1 9.9 -15 9.6 -15 4.8 -13.5 4.51 13.5 10.19 15 9.61 15 4.5 14.1 -0.9 5.7 -3 4.8 -3.9 3.3 -5.4 0.9 -5.1 -0.9 -4.8 -2.7 -3.3 -4.8 -1.2 -5.4 0 -3.3 -1.21 -0.6 -1.19 0.6zm-522.63 -581.13l0 0 0 -3.3 -0.9 -5.4 -3.3 -4.5 -4.8 -3 -5.1 -0.9 -5.1 1.2 -4.2 3.3 -2.7 4.5 -1.51 5.7 4.51 14.4 10.2 15.3 9.6 14.7 4.5 13.8 4.8 -13.8 9.9 -14.7 9.9 -15.3 4.5 -14.4 -1.2 -5.7 -2.7 -4.5 -4.2 -3.3 -5.1 -1.2 -5.4 0.9 -4.5 3 -3.6 4.5 -0.9 5.4 0 3.3 -1.5 0.6 -1.2 -0.6zm264.31 617.73l0 0 0 6.91 -2.4 11.69 -6.9 9.01 -9.9 6.3 -11.1 2.09 -11.1 -2.4 -8.7 -6.6 -6 -9.9 -2.4 -12 2.4 -14.4 7.2 -15.6 9.3 -15.9 11.4 -16.2 11.1 -15.9 9.9 -15.6 6.6 -15 3 -13.8 2.7 13.8 7.2 15 9.9 15.6 11.1 15.9 11.1 16.2 9.6 15.9 6.9 15.6 2.71 14.4 -2.41 12 -5.99 9.9 -9.31 6.6 -10.5 2.4 -11.4 -2.09 -9.6 -6.3 -7.2 -9.01 -2.7 -11.69 0 -6.91 -2.1 -1.5 -2.4 1.5zm0 -654.04l0 0 0 -6.89 -2.4 -11.7 -6.9 -9.3 -9.9 -6.3 -11.1 -2.1 -11.1 2.69 -8.7 6.31 -6 9.89 -2.4 12.01 2.4 14.7 7.2 15.6 9.3 15.9 11.4 16.2 11.1 16.2 9.9 15.6 6.6 15.3 3 13.8 2.7 -13.8 7.2 -15.3 9.9 -15.6 11.1 -16.2 11.1 -16.2 9.6 -15.9 6.9 -15.6 2.71 -14.7 -2.41 -12.01 -5.99 -9.89 -9.31 -6.31 -10.5 -2.69 -11.4 2.1 -9.6 6.3 -7.2 9.3 -2.7 11.7 0 6.89 -2.1 1.21 -2.4 -1.21zm285.92 654.64l0 0 0.6 3 0 3.31 -1.2 10.19 -4.2 9.01 -3 3.6 -3.91 3.89 -4.5 3.61 -4.79 3.89 -5.41 3.31 -4.2 3.29 -3.3 2.4 -2.4 1.8 -2.99 4.21 -0.91 5.4 -0.6 2.1 0 1.2 0.6 4.5 1.8 3.9 2.41 2.99 3.3 1.81 2.99 1.8 3 0.3 2.41 0 2.1 -0.3 1.8 -0.6 1.8 -0.6 3.59 -2.1 2.71 -3.3 1.5 -5.7 0.6 -7.51 8.7 0 0 2.71 -1.2 12 -4.2 9 -3.9 3.6 -4.21 2.7 -5.1 1.5 -5.99 0.6 -2.41 -0.6 -2.7 0 -2.7 -0.6 -2.09 -0.9 -2.1 -1.2 -2.11 -1.5 -1.5 -1.5 -1.8 -1.8 -2.99 -3.6 -1.81 -4.21 -1.5 -4.79 -0.6 -5.1 0.9 -9 2.4 -7.51 2.1 -3.9 3.3 -3.59 3.61 -3.01 4.19 -2.99 2.1 -1.2 2.1 -1.2 2.7 -1.81 2.71 -1.8 3 -1.49 2.7 -2.1 2.1 -2.1 2.4 -2.4 3.3 -5.11 1.19 -5.4 -40.8 0 0 -11.1 50.41 0z"/>
  </g>
 </g>
</svg>
